{"glyphs":{":":{"x_min":0,"x_max":256,"ha":256,"o":"m 172 251 q 174 268 188 280 q 203 292 220 292 q 237 292 246 282 q 255 271 255 263 q 255 255 253 244 q 251 234 237 222 q 223 210 206 210 q 189 210 179 222 q 169 234 172 251 z m 145 39 q 145 12 129 -1 q 113 -14 96 -14 q 79 -14 70 -4 q 61 7 61 15 q 61 23 63 34 q 65 44 79 56 q 93 68 110 68 q 127 68 136 58 q 145 47 145 39 z"},"$":{"x_min":0,"x_max":449,"ha":449,"o":"m 452 492 q 445 540 389 552 l 272 340 q 339 252 339 192 q 339 132 297 86 q 255 40 198 19 q 141 -2 83 -2 l 55 -55 l 21 -61 l 56 0 q -41 18 -67 53 q -66 60 -49 77 l -40 77 q 1 34 68 21 l 217 293 q 157 367 157 419 q 157 471 194 508 q 261 575 374 575 l 402 627 l 434 633 l 401 572 q 439 566 457 542 q 475 518 475 489 q 475 460 460 440 q 444 421 422 421 q 401 421 388 434 q 376 447 376 466 q 376 484 389 496 q 402 509 416 509 q 429 509 440 504 q 450 498 452 492 z m 364 556 l 350 557 q 302 557 261 525 q 220 493 220 446 q 220 425 227 411 q 234 397 244 380 q 255 364 256 362 z m 276 174 q 276 217 235 272 l 94 18 q 163 18 220 62 q 276 107 276 174 z"},"?":{"x_min":0,"x_max":382,"ha":382,"o":"m 382 469 q 418 515 418 552 q 418 582 384 598 q 369 604 356 604 q 343 604 326 602 q 309 601 283 588 q 257 575 241 556 q 225 538 225 523 q 225 520 225 518 q 230 537 260 554 q 277 562 288 562 q 299 562 306 558 q 323 549 323 524 q 323 499 301 482 q 279 465 257 465 q 223 465 212 493 q 207 503 207 517 q 207 531 214 551 q 228 582 278 611 q 343 649 396 649 q 457 649 483 604 q 490 591 490 575 q 490 519 424 444 q 401 418 345 364 q 289 309 256 265 q 223 221 200 160 q 196 151 188 154 q 179 157 181 167 q 189 202 215 247 q 241 292 259 316 q 277 341 326 400 q 375 460 382 469 z m 119 15 q 119 42 135 55 q 151 68 168 68 q 185 68 194 58 q 203 47 203 39 q 203 31 201 20 q 199 10 185 -2 q 171 -14 154 -14 q 137 -14 128 -4 q 119 7 119 15 z"},"<":{"x_min":0,"x_max":329,"ha":329,"o":"m 333 297 q 317 270 218 202 q 173 172 171 170 l 170 34 l 165 24 l 158 21 q 153 21 150 24 q 136 60 126 112 q 116 163 112 179 q 116 181 171 216 q 314 307 325 307 l 332 304 z"},"'":{"x_min":0,"x_max":158,"ha":158,"o":"m 77 390 q 77 396 85 399 q 115 410 136 432 q 158 454 162 486 q 147 476 132 476 q 116 476 107 487 q 98 498 98 506 q 98 514 100 524 q 102 535 116 547 q 130 559 148 559 q 167 559 178 542 q 188 526 188 504 q 188 460 158 430 q 127 401 88 388 q 85 387 81 387 q 77 387 77 390 z"},"=":{"x_min":0,"x_max":458,"ha":458,"o":"m 409 322 q 409 311 392 311 q 288 311 244 304 q 182 294 169 294 q 147 294 147 323 q 147 342 164 342 l 311 342 q 409 342 409 322 z m 409 222 q 409 211 392 211 q 288 211 244 204 q 182 194 169 194 q 147 194 147 223 q 147 242 164 242 l 311 242 q 409 242 409 222 z"},"a":{"x_min":0,"x_max":350,"ha":350,"o":"m 279 24 q 298 24 326 59 q 367 110 407 192 q 411 201 416 202 q 424 205 424 196 q 424 191 421 184 q 329 -2 266 -2 q 237 -2 219 26 q 210 41 210 66 q 210 91 220 127 q 140 -2 82 -2 q 66 -2 53 8 q 23 29 23 80 q 23 178 108 279 q 156 335 226 352 q 245 357 262 357 q 308 357 340 325 q 350 314 346 304 q 342 294 329 296 q 318 332 281 332 q 238 332 175 264 q 139 224 108 170 q 69 105 69 66 q 69 27 94 27 q 154 27 251 211 q 270 248 283 262 q 296 275 316 275 q 320 275 336 272 q 353 269 361 271 q 343 253 310 190 q 277 126 270 94 q 264 63 264 44 q 264 24 279 24 z"},"L":{"x_min":0,"x_max":712,"ha":712,"o":"m 959 760 q 959 673 902 578 q 846 483 746 412 q 647 342 541 324 q 480 201 453 152 l 432 118 q 630 69 760 -31 q 826 -82 849 -156 q 861 -194 861 -221 q 861 -248 850 -266 q 840 -285 826 -292 q 812 -299 806 -299 q 800 -299 800 -294 q 800 -289 812 -264 q 823 -240 823 -207 q 823 -174 809 -134 q 795 -94 757 -60 q 719 -27 652 2 q 584 32 534 44 q 485 57 402 73 q 317 -46 225 -90 q 170 -117 128 -117 q 85 -117 52 -100 q -5 -72 -5 -15 q -5 42 70 85 q 155 135 300 135 q 352 135 394 127 q 439 197 499 320 q 493 320 488 320 q 425 320 371 341 q 317 362 285 398 q 243 445 243 504 q 243 535 258 571 q 274 607 328 644 q 381 681 463 700 q 476 703 485 703 q 494 703 496 698 q 498 693 488 689 q 478 685 465 683 q 422 678 385 654 q 321 613 296 528 q 290 508 290 490 q 290 471 297 445 q 304 419 327 392 q 350 364 390 353 q 429 342 458 342 q 488 342 513 345 l 598 559 q 686 785 808 837 q 840 850 870 850 q 901 850 928 830 q 956 811 958 783 q 959 771 959 760 z m 917 759 q 917 797 882 797 q 831 797 758 708 q 701 637 648 536 q 596 436 555 351 q 694 382 806 504 q 917 625 917 759 z m 363 79 q 314 90 262 90 q 210 90 155 75 q 40 45 20 -10 q 16 -20 16 -29 q 16 -55 44 -72 q 73 -88 107 -88 q 154 -88 209 -62 q 292 -22 363 79 z"},"3":{"x_min":0,"x_max":458,"ha":458,"o":"m 486 516 q 486 407 264 327 q 318 327 358 306 q 399 284 399 230 q 399 177 348 118 q 298 59 229 24 q 160 -11 102 -11 q 43 -11 10 13 l 10 18 l 17 24 l 22 26 q 54 11 92 11 q 170 11 250 88 q 331 164 331 243 q 331 272 311 288 q 291 305 266 305 q 242 305 191 291 l 184 294 l 183 303 l 187 308 q 340 371 392 442 q 417 476 417 511 q 417 546 378 546 q 319 546 240 457 l 235 457 l 228 463 l 228 468 q 318 578 410 578 q 443 578 464 563 q 486 548 486 516 z"},";":{"x_min":0,"x_max":255,"ha":255,"o":"m 172 251 q 174 268 188 280 q 203 292 220 292 q 237 292 246 282 q 255 271 255 263 q 255 255 253 244 q 251 234 237 222 q 223 210 206 210 q 189 210 179 222 q 169 234 172 251 z m 151 14 q 151 -31 120 -60 q 90 -89 51 -102 q 47 -104 44 -104 q 40 -104 40 -99 q 40 -94 48 -91 q 78 -81 100 -58 q 121 -36 125 -4 q 110 -14 94 -14 q 79 -14 69 -2 q 59 10 62 27 q 65 44 79 56 q 93 68 112 68 q 130 68 140 52 q 151 36 151 14 z"},"J":{"x_min":0,"x_max":966,"ha":966,"o":"m 1190 706 l 1147 698 q 1070 565 999 340 q 972 255 923 144 q 874 34 814 -60 q 733 -186 598 -268 q 464 -349 353 -364 q 302 -371 237 -371 q 172 -371 103 -348 q -5 -312 -45 -230 q -63 -192 -63 -141 q -63 -90 -36 -21 q -17 25 31 65 q 79 105 106 106 q 118 107 118 102 q 117 98 105 92 q 73 79 34 35 q -5 -9 -18 -54 q -30 -98 -30 -122 q -30 -195 9 -240 q 36 -270 76 -294 q 116 -318 162 -327 q 230 -340 270 -340 q 310 -340 341 -332 q 409 -317 472 -282 q 536 -247 585 -206 q 634 -164 682 -103 q 731 -42 764 8 q 797 58 834 128 q 894 242 957 390 q 1036 566 1117 694 q 978 671 834 594 q 761 555 709 495 q 642 419 642 332 q 642 285 664 259 q 687 233 712 233 q 737 233 767 244 q 797 255 821 282 q 859 326 859 383 q 859 407 852 415 q 840 423 850 430 q 861 436 873 423 q 883 401 883 372 q 883 342 861 304 q 824 241 759 218 q 729 208 702 208 q 657 208 621 237 q 575 275 575 339 q 575 420 633 494 q 677 551 736 588 q 796 625 871 654 q 992 701 1134 720 q 1146 740 1170 767 q 1194 794 1210 799 q 1226 804 1236 804 q 1271 804 1271 774 q 1270 747 1249 732 q 1228 718 1190 706 z m 1221 772 q 1219 772 1216 771 q 1214 770 1210 766 q 1205 763 1201 760 q 1197 757 1192 751 q 1186 745 1182 742 q 1179 738 1173 732 q 1167 725 1165 723 q 1234 735 1233 760 q 1231 772 1221 772 z"},"V":{"x_min":0,"x_max":975,"ha":975,"o":"m 549 -96 q 540 -96 531 -94 q 483 -85 483 -9 q 483 114 607 410 q 655 522 678 628 q 687 669 687 694 q 687 718 685 732 q 680 776 652 793 q 602 820 540 820 q 475 820 403 788 q 331 756 268 710 q 204 664 152 600 q 100 537 74 468 q 49 398 49 342 q 49 319 53 298 q 69 229 113 195 q 157 161 217 161 q 301 161 374 235 q 448 309 448 392 q 448 437 430 457 q 412 477 393 477 q 374 477 355 472 q 336 466 336 472 q 336 479 359 490 q 382 500 407 500 q 432 500 453 485 q 492 455 492 394 q 492 333 446 272 q 399 210 331 172 q 263 135 196 135 q 130 135 73 184 q 16 232 -3 314 q -8 338 -8 365 q -8 428 23 502 q 54 576 112 640 q 171 703 239 746 q 307 788 383 816 q 459 845 526 845 q 593 845 648 824 q 745 782 745 646 q 745 546 673 398 q 628 306 593 200 q 541 43 541 -18 q 541 -64 572 -64 q 634 -64 789 97 q 898 210 960 345 q 1000 431 1000 503 q 1000 541 994 556 q 988 572 986 576 q 984 581 978 584 q 972 588 970 588 q 956 592 941 594 q 926 597 924 608 q 921 619 934 621 l 953 619 q 999 606 1033 554 q 1052 525 1052 484 q 1052 444 1033 389 q 987 267 891 148 q 795 30 702 -33 q 608 -96 549 -96 z"},"\"":{"x_min":0,"x_max":318,"ha":318,"o":"m 308 657 q 332 657 332 628 q 332 597 315 530 q 298 462 297 459 l 287 459 l 279 625 q 278 639 286 648 q 294 657 308 657 z m 200 657 q 223 657 223 623 q 223 589 189 459 l 179 459 l 170 624 q 169 637 178 647 q 187 657 200 657 z"},"7":{"x_min":0,"x_max":488,"ha":488,"o":"m 499 495 l 340 499 q 310 499 288 488 q 267 477 258 464 q 235 429 221 427 l 218 429 l 218 435 q 260 518 293 542 q 326 565 412 565 q 499 565 554 558 q 567 568 574 568 l 578 562 l 576 555 q 545 520 410 378 q 271 233 138 63 q 93 6 87 4 q 81 1 17 -5 l 11 -2 l 10 2 q 17 32 400 401 q 465 463 499 495 z"},"S":{"x_min":0,"x_max":901,"ha":901,"o":"m 901 679 q 901 714 869 745 q 823 789 742 789 q 671 789 585 758 q 540 742 507 714 q 456 670 456 626 q 456 567 531 520 q 559 503 644 464 q 728 426 767 402 q 826 366 848 325 q 871 284 871 249 q 871 199 838 147 q 780 54 668 -13 q 539 -91 357 -91 q 182 -91 79 -2 q -1 66 -1 173 q -1 241 48 323 q 98 405 170 439 q 185 445 192 443 q 200 441 180 424 q 137 390 111 349 q 55 261 55 158 q 55 90 93 39 q 161 -52 329 -64 q 348 -66 386 -66 q 423 -66 488 -52 q 552 -39 612 -8 q 741 60 779 168 q 791 200 791 230 q 791 298 730 350 q 697 376 596 420 q 494 463 459 486 q 382 538 382 609 q 382 671 451 730 q 550 814 731 814 q 816 814 870 788 q 923 763 935 712 q 937 702 937 692 q 937 653 901 622 q 876 602 834 590 q 816 585 814 594 q 812 607 839 610 q 887 616 898 658 q 901 669 901 679 z"},"}":{"x_min":0,"x_max":485,"ha":485,"o":"m 484 299 q 484 293 468 277 q 394 277 349 242 q 300 205 272 76 q 261 29 238 -22 q 214 -72 178 -97 q 129 -131 31 -131 l 26 -131 q 19 -130 19 -126 q 19 -109 34 -109 q 107 -109 140 -82 q 183 -48 212 69 q 223 113 244 161 q 265 209 293 235 q 336 273 423 290 q 348 303 327 344 q 320 357 320 378 q 320 398 323 416 q 326 434 332 460 q 338 485 344 502 q 362 560 370 587 q 378 614 378 638 q 378 661 370 672 q 352 699 280 699 q 272 699 272 704 q 272 709 286 722 l 291 722 q 394 722 420 687 q 433 670 433 648 q 433 626 428 592 q 423 558 404 508 q 371 425 371 375 q 371 350 381 337 q 400 312 477 304 q 484 304 484 299 z"},"Z":{"x_min":0,"x_max":677,"ha":677,"o":"m 867 685 q 962 760 1018 760 q 1034 760 1047 754 q 1076 742 1076 716 q 1076 690 1046 661 q 1028 646 987 646 q 946 646 884 661 q 835 616 708 448 q 626 339 600 309 q 573 279 552 258 q 531 236 515 220 q 499 203 476 182 q 453 161 440 150 q 428 138 404 118 q 381 99 374 92 q 366 86 342 67 q 319 48 317 46 q 591 -73 698 -94 q 737 -101 778 -101 q 819 -101 862 -94 q 904 -88 936 -63 q 969 -38 974 -5 q 979 28 990 28 q 999 28 999 13 q 999 -2 998 -17 q 996 -32 986 -52 q 976 -72 953 -98 q 930 -123 880 -140 q 828 -158 762 -158 q 696 -158 579 -111 q 462 -64 377 -16 l 292 32 q 191 -40 119 -40 q 105 -40 92 -37 q 32 -23 16 29 q 11 44 11 58 q 11 88 36 114 q 60 140 105 140 q 127 140 154 133 q 206 119 297 61 q 557 365 635 460 q 736 579 848 670 q 699 711 568 711 q 498 711 430 698 q 384 686 348 658 q 305 623 305 588 q 305 552 350 521 q 373 505 361 501 q 349 497 338 502 q 321 506 301 528 q 271 563 271 604 q 271 651 306 693 q 328 720 376 740 q 439 766 523 766 q 580 766 636 752 q 691 739 720 731 q 748 723 800 706 q 851 690 867 685 z m 899 676 q 954 660 984 660 q 1014 660 1030 670 q 1047 681 1047 710 q 1047 718 1040 730 q 1034 741 1017 741 q 976 741 899 676 z m 62 73 q 56 62 56 47 q 56 32 76 12 q 97 -8 144 -8 q 180 -8 218 8 q 256 23 278 42 q 258 58 248 65 q 176 105 128 105 q 79 105 62 73 z"},"x":{"x_min":0,"x_max":333,"ha":333,"o":"m 172 205 q 182 258 182 283 q 181 308 162 308 q 142 308 116 266 q 109 255 84 208 q 59 160 52 148 q 46 137 42 144 q 38 150 45 164 q 103 286 131 312 q 159 335 182 335 q 184 335 187 335 q 233 330 233 265 q 233 241 227 209 q 254 260 290 304 q 325 347 346 353 q 352 354 360 354 q 369 354 380 348 q 390 342 386 326 q 383 310 372 300 q 360 291 343 291 q 326 291 321 308 q 290 279 259 230 q 228 181 213 134 q 210 113 210 94 q 210 76 213 60 q 221 29 240 25 q 247 23 257 23 q 267 23 284 32 q 300 40 321 70 q 353 117 370 150 q 386 182 388 186 q 390 189 391 192 q 399 207 404 203 q 408 199 408 196 q 408 192 406 188 q 405 184 389 152 q 373 119 367 108 q 361 97 344 70 q 326 44 312 32 q 272 0 234 0 q 197 0 178 29 q 159 58 159 91 q 159 111 160 118 q 81 -35 6 -35 q -15 -35 -30 -20 q -32 -17 -32 -14 q -32 -11 -30 -7 q -29 -3 -24 -2 q -18 0 -12 -6 q -5 -12 8 -12 q 21 -12 38 -4 q 69 11 110 74 q 151 138 172 205 z"},")":{"x_min":0,"x_max":518,"ha":518,"o":"m 37 -51 q 28 -53 21 -53 q 14 -53 14 -47 q 14 -36 38 -30 q 118 -9 188 40 q 258 90 304 151 q 450 345 450 535 q 450 664 387 716 q 356 742 314 742 q 306 742 292 740 q 279 739 277 748 q 276 764 329 764 q 382 764 432 718 q 483 673 501 585 q 508 550 508 500 q 508 450 492 380 q 472 304 410 217 q 348 130 247 54 q 146 -23 37 -51 z"},"&":{"x_min":0,"x_max":606,"ha":606,"o":"m 335 398 l 402 400 q 444 400 458 382 q 465 374 465 366 q 465 358 460 352 q 448 337 415 337 q 358 337 314 381 q 202 364 144 262 q 107 196 107 133 q 107 98 118 64 q 151 -32 261 -32 q 359 -32 431 34 q 503 100 503 165 q 503 196 476 216 q 450 237 420 240 q 391 244 370 244 q 350 244 318 240 q 285 235 253 213 q 215 187 215 144 q 215 101 282 66 q 292 60 290 50 q 289 41 282 45 q 219 79 193 122 q 175 150 175 169 q 175 188 180 200 q 192 235 240 259 q 288 283 362 283 l 539 283 q 591 283 667 318 q 704 335 721 358 q 729 370 729 384 q 729 397 723 407 q 717 417 718 421 q 719 425 724 425 q 728 425 731 420 q 745 396 745 374 q 745 353 732 335 q 707 297 647 274 q 587 251 523 251 q 521 251 518 251 q 556 220 556 172 q 556 105 478 34 q 441 -1 383 -23 q 325 -45 261 -45 q 106 -45 42 45 q 10 90 10 132 q 10 174 23 210 q 58 305 164 357 q 225 387 301 395 q 273 434 274 493 q 274 552 325 604 q 376 656 442 680 q 509 703 572 703 q 624 703 660 682 q 697 661 697 615 q 697 586 679 564 q 661 541 638 541 q 616 541 602 554 q 589 568 589 588 q 589 608 602 621 q 616 634 634 634 q 646 634 657 628 q 668 623 670 616 q 671 622 671 628 q 671 650 653 662 q 634 676 596 676 q 558 676 507 656 q 456 635 411 596 q 366 557 340 500 q 326 468 326 443 q 326 418 335 398 z m 448 367 q 448 385 374 385 q 359 385 343 384 q 367 354 408 354 q 448 354 448 367 z"},"_":{"x_min":0,"x_max":806,"ha":806,"o":"m 219 -67 l 25 -73 q 17 -73 12 -63 q 8 -53 8 -44 q 8 -25 25 -25 l 765 -25 q 776 -25 784 -34 q 792 -42 793 -53 l 786 -60 q 550 -60 219 -67 z"},"v":{"x_min":0,"x_max":262,"ha":262,"o":"m 323 349 l 318 331 q 267 172 224 99 q 161 -7 92 -7 q 36 -7 36 47 q 36 88 66 174 q 56 158 50 164 q 45 169 48 177 l 66 211 q 85 250 85 289 q 85 328 69 335 q 129 345 139 344 q 149 344 152 336 q 154 328 154 318 q 154 257 122 174 q 91 91 91 62 q 91 34 100 30 q 109 25 118 25 q 144 25 177 67 q 210 109 243 191 q 229 223 229 248 q 229 272 235 291 q 253 348 292 362 q 300 365 307 365 q 323 365 323 349 z"},"O":{"x_min":0,"x_max":726,"ha":726,"o":"m 538 24 q 427 -61 313 -61 q 193 -61 138 28 q 99 93 99 172 q 99 252 128 331 q 58 378 51 457 q 49 472 49 487 q 49 607 152 688 q 262 774 412 774 q 562 774 660 690 q 759 607 759 452 q 759 442 759 432 q 859 498 889 558 q 894 569 902 568 q 910 566 910 561 q 910 556 904 547 q 845 454 755 397 q 751 350 730 284 q 708 218 657 148 q 606 77 538 24 z m 700 453 q 700 622 592 703 q 520 757 424 757 q 396 757 367 752 q 245 734 168 651 q 103 579 103 488 q 103 409 146 372 q 185 455 261 540 q 344 633 436 654 q 451 657 474 657 q 498 657 529 638 q 536 634 536 630 q 537 626 532 624 q 527 622 517 626 q 507 629 484 629 q 460 629 416 605 q 372 581 327 530 q 238 429 197 338 q 260 309 348 309 q 387 309 431 314 q 574 333 698 400 q 700 427 700 453 z m 692 365 q 525 276 340 276 q 250 276 182 303 q 151 222 151 163 q 151 25 234 -16 q 279 -37 324 -37 q 368 -37 410 -18 q 498 22 568 107 q 638 192 674 294 q 688 334 692 365 z"},"(":{"x_min":0,"x_max":350,"ha":350,"o":"m 496 755 q 505 757 512 757 q 519 757 519 751 q 518 741 496 734 q 431 717 372 680 q 313 643 272 600 q 230 558 196 507 q 83 340 83 169 q 83 40 146 -13 q 176 -38 218 -38 q 227 -38 241 -36 q 255 -35 256 -44 q 257 -60 204 -60 q 151 -60 100 -14 q 50 31 32 119 q 25 154 25 204 q 25 254 41 324 q 56 380 97 446 q 138 511 196 572 q 255 634 334 684 q 414 734 496 755 z"},"C":{"x_min":0,"x_max":710,"ha":710,"o":"m 379 -101 q 301 -101 230 -70 q 158 -40 116 19 q 73 78 64 148 q 60 178 60 214 q 60 250 69 309 q 78 368 108 437 q 139 506 181 559 q 164 626 164 682 q 164 739 177 788 q 179 796 184 800 q 188 803 190 803 q 200 803 196 778 q 192 754 192 708 q 192 663 205 593 q 285 696 393 743 q 476 779 567 779 q 593 779 621 776 q 775 759 829 658 q 851 616 851 571 q 851 526 830 478 q 786 382 679 336 q 610 306 528 306 q 493 306 457 311 q 278 337 209 481 q 185 447 160 367 q 134 287 130 244 q 126 201 126 172 q 126 143 130 112 q 137 57 172 12 q 207 -32 266 -50 q 324 -67 367 -67 q 506 -67 604 -9 q 663 26 696 70 q 730 115 768 193 q 774 206 780 202 q 787 198 780 183 q 742 106 710 61 q 677 16 621 -23 q 509 -101 379 -101 z m 229 513 q 300 332 525 332 q 652 332 728 403 q 805 474 805 564 q 805 654 727 704 q 669 741 584 741 q 499 741 413 692 q 305 629 229 513 z"},"W":{"x_min":0,"x_max":1344,"ha":1344,"o":"m 870 47 q 870 -48 947 -48 q 1019 -48 1125 37 q 1241 129 1284 231 q 1333 346 1333 427 q 1333 508 1300 549 q 1268 590 1211 590 q 1198 590 1184 588 q 1160 582 1148 582 q 1137 582 1137 588 q 1137 597 1156 605 q 1174 613 1184 613 q 1193 613 1199 613 q 1205 613 1213 613 q 1270 613 1318 568 q 1365 523 1379 436 q 1382 415 1382 393 q 1382 319 1347 225 q 1298 101 1178 14 q 1059 -73 959 -73 q 855 -73 831 23 q 824 48 824 91 q 824 134 845 203 q 791 113 705 8 q 658 -48 609 -85 q 557 -124 521 -124 q 450 -124 450 -38 q 450 63 581 374 q 663 572 663 671 q 663 735 624 760 q 586 784 533 784 q 510 784 485 779 q 308 743 171 588 q 103 510 77 438 q 51 367 48 332 q 44 298 44 276 q 44 253 52 224 q 61 195 82 170 q 121 125 191 125 q 307 125 375 246 q 410 308 410 358 q 410 440 337 440 q 325 440 307 437 q 289 434 290 441 q 291 448 317 456 q 343 464 369 464 q 421 464 445 424 q 460 399 460 365 q 460 331 441 286 q 390 169 258 114 q 223 99 193 99 q 95 99 37 169 q -4 217 -15 293 q -17 308 -17 324 q -17 388 16 462 q 48 537 104 601 q 160 665 226 708 q 292 751 365 780 q 441 809 506 809 q 571 809 624 789 q 720 747 720 628 q 720 530 653 378 q 607 275 565 157 q 505 -11 505 -62 q 505 -98 530 -98 q 543 -98 561 -86 q 615 -54 679 35 q 743 124 812 242 q 881 360 910 400 q 939 440 960 440 q 965 440 970 438 q 983 431 983 411 q 983 391 978 375 q 972 359 926 248 q 880 136 875 100 q 870 65 870 47 z"},"A":{"x_min":0,"x_max":712,"ha":712,"o":"m 664 445 q 687 445 687 416 q 687 385 662 358 q 618 309 581 235 q 525 123 525 33 q 525 -2 538 -18 q 550 -34 566 -34 q 614 -34 678 44 q 735 117 765 186 q 773 202 781 200 q 789 198 782 182 q 741 91 689 22 q 662 -15 622 -40 q 582 -64 542 -64 q 503 -64 483 -32 q 463 -1 463 42 q 463 85 474 127 q 484 169 501 192 q 400 71 286 -2 q 226 -39 153 -46 q 146 -47 130 -47 q 113 -47 90 -35 q 18 -5 18 112 q 18 228 94 364 q 134 436 182 491 q 115 523 82 560 q 58 587 58 625 q 58 663 73 673 q 83 686 91 678 q 97 669 92 656 q 86 643 86 631 q 86 604 115 571 q 144 538 200 512 q 435 773 688 773 q 767 773 814 738 q 860 702 860 646 q 860 585 792 528 q 758 498 695 476 q 599 442 466 442 q 334 442 247 470 q 146 327 108 232 q 70 138 70 86 q 70 75 71 66 q 83 -17 155 -17 q 236 -17 343 71 q 419 135 492 223 q 565 311 600 378 q 636 445 664 445 z m 819 658 q 819 701 784 724 q 748 747 686 747 q 624 747 562 727 q 501 707 448 668 q 394 629 352 588 q 311 547 263 490 q 338 466 447 466 q 652 466 746 532 q 819 583 819 658 z"},"f":{"x_min":0,"x_max":198,"ha":198,"o":"m -61 -348 q -116 -348 -116 -293 q -116 -214 -13 29 q -25 49 -25 62 q -25 104 -6 118 q 8 130 18 130 q 27 130 30 129 q 144 386 235 556 q 253 592 272 609 q 291 626 320 626 q 324 626 340 623 q 356 620 364 621 q 317 577 232 427 q 147 277 71 106 q 94 78 103 31 l 106 18 q 108 18 109 18 q 136 18 166 50 q 196 81 215 114 q 234 148 246 174 q 258 199 261 201 q 264 203 266 202 q 269 202 271 200 q 273 199 273 196 q 273 192 271 188 q 188 -1 108 -1 q 109 -17 109 -54 q 109 -90 91 -162 q 73 -234 30 -291 q -12 -348 -61 -348 z m -62 -293 q -62 -322 -46 -322 q -27 -322 6 -278 q 40 -233 64 -156 q 87 -78 87 -15 q 87 -10 87 -5 q 82 -5 78 -5 q 49 -5 29 11 q -62 -219 -62 -293 z m 79 14 l 85 14 q 82 57 61 83 l 39 33 q 49 14 79 14 z"},"Q":{"x_min":0,"x_max":752,"ha":752,"o":"m 491 628 q 446 628 390 590 q 316 539 258 455 q 200 371 170 266 q 152 205 152 160 q 152 44 216 -10 q 256 -43 304 -43 q 404 -43 503 32 q 567 81 614 142 q 717 278 717 433 q 717 539 662 621 q 593 724 466 750 q 427 759 389 759 q 351 759 316 754 q 201 739 152 655 q 120 602 120 536 q 120 497 131 453 q 135 436 126 432 q 117 428 107 447 q 82 497 82 550 q 82 602 118 656 q 183 754 312 776 q 377 786 418 786 q 545 786 616 746 q 729 683 756 572 q 770 518 770 457 q 770 396 750 330 q 729 265 696 206 q 664 146 614 92 q 474 -63 310 -63 q 240 -63 191 -27 q 142 9 120 64 q 96 125 96 184 q 96 243 109 294 q 122 345 148 400 q 173 455 208 499 q 243 543 283 580 q 357 649 450 656 q 456 657 461 657 q 496 657 529 638 q 536 634 536 630 q 537 626 532 624 q 527 622 517 625 q 507 628 491 628 z m 428 -314 q 351 -270 283 -200 q 254 -171 228 -146 q 169 -91 111 -91 q 90 -91 68 -104 q 47 -118 46 -134 q 44 -151 37 -150 q 29 -150 29 -130 q 29 -111 54 -86 q 80 -61 111 -61 q 197 -61 298 -142 q 342 -178 390 -216 q 439 -253 510 -288 q 582 -323 665 -339 q 694 -345 718 -345 q 779 -345 801 -307 q 811 -290 811 -266 q 811 -243 789 -211 q 743 -143 647 -127 q 631 -125 631 -115 q 631 -106 644 -108 q 761 -127 814 -197 q 839 -232 839 -258 q 839 -285 827 -306 q 790 -369 658 -369 q 525 -369 428 -314 z"},"w":{"x_min":0,"x_max":476,"ha":476,"o":"m 503 349 l 498 332 q 454 186 418 118 q 353 -2 276 -2 q 240 -2 227 16 q 214 35 212 50 q 211 65 211 76 q 211 103 220 135 q 146 0 87 0 q 65 0 47 12 q 29 25 25 46 q 22 51 22 58 q 22 101 59 162 q 43 162 50 178 l 68 213 q 117 309 124 323 q 134 344 163 344 l 224 344 q 188 318 152 244 q 115 169 96 127 q 76 85 76 62 q 76 40 84 30 q 91 21 103 21 q 115 21 132 38 q 149 54 163 73 q 177 92 192 116 q 206 140 218 162 q 230 183 244 212 q 258 240 266 256 q 295 314 298 323 q 307 344 336 344 l 397 344 q 395 342 386 336 q 366 323 357 307 q 312 232 294 186 q 254 84 254 55 q 254 19 281 18 q 283 18 286 18 q 358 18 428 192 q 414 222 414 247 q 414 272 420 292 q 437 350 474 363 q 481 366 487 366 q 503 366 503 349 z"},"-":{"x_min":0,"x_max":406,"ha":406,"o":"m 147 221 q 147 242 164 242 q 229 242 384 238 q 401 237 405 225 q 403 213 388 211 q 310 211 236 202 q 163 194 163 194 q 157 194 152 204 q 147 213 147 221 z"},"E":{"x_min":0,"x_max":815,"ha":815,"o":"m 492 375 l 385 376 q 253 376 179 312 q 92 238 92 140 q 92 94 114 56 q 135 17 190 -8 q 246 -33 340 -33 q 435 -33 540 7 q 645 47 717 103 q 799 167 799 215 q 799 238 775 244 q 751 249 750 256 q 748 265 765 264 q 782 263 793 257 q 838 233 838 195 q 838 139 760 78 q 683 17 565 -19 q 447 -55 344 -55 q 241 -55 177 -35 q 64 0 30 94 q 21 118 21 140 q 21 162 29 194 q 37 227 65 269 q 93 311 146 347 q 199 383 260 400 q 320 418 368 420 q 318 438 283 470 q 248 502 248 539 q 248 542 248 545 q 255 626 339 690 q 423 755 515 780 q 607 804 674 804 q 695 804 715 802 q 798 792 834 760 q 870 729 870 697 q 870 652 818 610 q 767 569 694 553 q 676 549 664 549 q 653 549 654 555 q 658 567 688 570 q 718 574 746 594 q 802 635 810 700 q 810 703 810 706 q 810 731 786 752 q 756 780 685 780 q 614 780 538 758 q 462 735 398 683 q 322 621 322 548 q 322 519 340 495 q 357 471 390 460 q 424 448 458 440 q 535 424 535 398 q 535 375 492 375 z"},"s":{"x_min":0,"x_max":256,"ha":256,"o":"m 143 19 q 156 17 161 17 q 201 17 240 64 q 261 90 315 195 q 317 200 322 200 q 331 201 331 193 q 331 191 326 182 q 322 172 318 162 q 314 153 305 135 q 296 117 290 106 q 283 95 273 79 q 263 63 253 54 l 232 32 q 215 15 192 8 q 155 -4 120 6 q 97 -4 79 -4 q 8 -4 -7 52 q -10 65 -10 84 q -10 102 2 119 q 15 136 29 137 q 80 234 116 312 q 156 397 209 397 q 223 397 236 390 q 250 384 246 376 q 243 368 232 373 q 221 378 213 378 q 205 378 199 375 q 165 359 165 306 q 165 278 173 260 q 181 242 191 221 q 214 169 214 136 q 214 103 193 71 q 172 39 143 19 z m 109 26 q 153 60 153 136 q 153 167 146 221 q 139 275 139 294 q 139 313 140 320 q 64 168 46 135 q 67 135 67 105 q 67 46 109 26 z m 34 53 q 34 47 35 40 q 43 13 72 13 q 84 13 92 17 q 55 40 52 92 q 34 74 34 53 z"},">":{"x_min":0,"x_max":329,"ha":329,"o":"m 248 150 l 43 22 l 36 21 q 32 21 28 23 l 27 27 q 27 37 50 55 q 73 73 90 86 q 106 99 124 112 q 141 125 155 134 q 169 144 179 151 l 189 158 l 190 294 q 191 295 192 298 q 194 302 195 303 l 203 307 l 212 303 q 227 263 236 214 q 245 165 248 150 z"},"l":{"x_min":0,"x_max":212,"ha":212,"o":"m 126 19 q 162 19 196 68 q 230 116 268 191 q 276 205 283 202 q 288 198 285 192 q 282 185 272 164 q 263 142 258 134 q 254 125 242 104 q 231 82 222 72 q 214 61 200 44 q 185 28 172 20 q 137 -2 106 -2 q 75 -2 58 12 q 41 25 38 40 q 34 56 34 68 q 34 80 35 99 q 38 131 48 161 q 57 191 58 195 q 81 278 124 376 q 166 474 196 524 q 225 573 242 591 q 276 627 309 627 q 332 627 340 594 q 341 588 341 579 q 341 545 317 493 q 231 302 112 193 q 111 189 103 166 q 95 142 90 120 q 84 99 84 78 q 84 56 94 38 q 104 19 126 19 z m 311 586 q 301 586 273 546 q 245 507 198 404 q 150 302 120 225 q 171 277 221 356 q 271 435 294 490 q 318 546 318 566 q 318 586 311 586 z"},"8":{"x_min":0,"x_max":420,"ha":420,"o":"m 406 378 q 363 330 310 284 q 329 242 329 170 q 329 99 266 44 q 202 -11 128 -11 q 81 -11 48 14 q 14 40 14 80 q 14 119 34 156 q 54 192 92 228 q 157 289 218 334 q 201 373 201 414 q 201 479 252 528 q 304 577 369 577 q 409 577 435 558 q 461 538 461 504 q 461 471 447 440 q 433 409 406 378 z m 425 501 q 425 527 410 542 q 396 557 370 557 q 328 557 297 523 q 266 489 266 446 q 266 404 303 305 q 351 345 388 398 q 425 451 425 501 z m 223 315 q 60 194 60 83 q 60 49 78 30 q 96 10 130 10 q 185 10 225 56 q 265 101 265 157 q 265 213 223 315 z"},"\\":{"x_min":0,"x_max":867,"ha":867,"o":"m 69 761 q 61 761 46 754 q 31 748 27 747 l 20 754 q 32 790 92 790 q 226 790 433 513 q 464 472 531 380 q 598 287 635 236 q 735 100 850 -19 q 858 -29 859 -34 l 852 -40 q 763 -13 548 266 q 460 381 371 494 q 282 607 200 684 q 119 761 69 761 z"},"e":{"x_min":0,"x_max":246,"ha":246,"o":"m 101 154 q 87 120 87 78 q 87 50 100 34 q 112 17 135 17 q 226 17 300 188 q 307 204 317 202 q 321 201 321 197 q 321 193 298 144 q 276 96 253 66 q 202 -4 127 -4 q 87 -4 59 22 q 31 48 31 93 q 31 138 52 188 q 74 239 111 282 q 148 326 196 346 q 219 356 240 356 q 261 356 279 344 q 296 330 296 313 q 296 253 224 198 q 202 181 162 168 q 122 154 101 154 z m 269 314 q 269 334 253 334 q 225 334 168 265 q 134 223 108 171 q 125 171 158 183 q 190 195 214 215 q 269 262 269 314 z"},"b":{"x_min":0,"x_max":345,"ha":345,"o":"m 309 272 q 309 329 262 329 q 258 329 254 329 q 236 327 233 336 q 230 345 242 348 q 254 351 268 349 q 320 341 339 300 q 352 275 352 251 q 352 165 289 82 q 226 -2 126 -2 q 89 -2 66 19 q 43 40 43 75 q 43 117 91 217 q 9 62 -15 39 q -25 30 -25 45 q -25 48 -23 52 q 12 98 116 302 q 221 506 263 569 q 297 618 329 618 q 329 618 330 618 l 335 618 q 336 618 352 615 q 369 612 377 614 q 344 579 273 474 q 97 213 97 84 q 97 31 131 24 q 134 23 138 23 q 169 23 216 78 q 262 134 292 205 q 309 242 309 272 z"},"%":{"x_min":0,"x_max":621,"ha":621,"o":"m 271 732 q 346 732 346 660 q 346 574 270 470 q 253 446 238 432 q 252 407 280 407 q 327 407 413 476 q 438 496 514 579 q 589 662 594 665 q 598 668 608 668 q 618 668 620 661 l 5 -84 l -32 -84 l -33 -79 q 110 71 278 277 q 328 339 437 473 q 340 390 278 390 q 243 390 219 415 q 175 381 134 381 q 61 381 61 473 q 61 516 83 564 q 113 633 168 682 q 222 732 271 732 z m 488 321 q 564 321 564 245 q 564 169 502 79 q 427 -29 351 -29 q 278 -29 278 63 q 278 105 300 153 q 330 223 384 272 q 439 321 488 321 z m 153 403 q 177 403 208 429 q 191 455 193 478 q 193 521 227 521 q 240 521 248 512 q 257 504 257 494 q 257 484 255 480 q 273 505 292 550 q 320 615 320 653 q 320 691 294 698 q 288 700 282 700 q 255 700 218 664 q 182 629 152 566 q 117 493 117 448 q 117 403 153 403 z m 369 -8 q 385 -8 407 6 q 429 19 440 32 q 452 45 474 73 q 496 101 516 159 q 537 217 537 245 q 537 289 500 289 q 472 289 436 254 q 399 219 369 156 q 334 82 334 37 q 334 -8 369 -8 z"},"m":{"x_min":0,"x_max":507,"ha":507,"o":"m 530 328 q 408 111 408 48 q 408 20 427 20 q 451 20 482 56 q 529 113 564 193 q 570 207 576 204 q 582 201 582 196 q 582 191 572 171 q 562 151 556 139 q 550 127 530 93 q 509 59 494 43 q 480 27 458 12 q 435 -4 406 -4 q 378 -4 358 24 q 349 37 349 60 q 349 82 359 114 q 369 146 414 218 q 425 236 425 246 q 425 257 408 257 q 392 257 349 217 q 306 177 258 109 q 211 41 202 0 q 185 0 177 14 q 169 28 169 38 q 169 79 224 194 q 242 232 243 246 q 244 259 240 260 q 235 260 227 256 q 209 247 172 212 q 102 148 34 17 q 29 6 22 4 q 14 1 -8 0 q -30 -1 -37 -5 q -19 30 26 126 q 107 298 134 324 q 146 336 167 336 q 171 336 188 333 q 204 330 212 332 q 175 312 91 144 q 138 202 158 220 q 179 238 189 247 q 199 256 204 261 q 210 266 220 276 q 231 285 236 290 q 242 294 252 302 q 262 310 268 312 q 273 315 282 321 q 292 327 296 327 q 301 327 309 330 q 317 332 320 328 q 340 320 340 303 q 340 288 306 226 q 272 164 262 144 q 306 199 346 234 q 386 270 440 300 q 495 330 520 330 q 526 330 530 328 z"},"#":{"x_min":0,"x_max":746,"ha":746,"o":"m 719 465 l 691 417 l 542 417 l 459 276 l 620 276 l 591 229 l 430 229 l 291 0 l 238 0 l 375 229 l 237 229 l 98 0 l 45 0 l 183 229 l 25 229 l 55 276 l 211 276 l 295 417 l 125 417 l 154 465 l 324 465 l 462 696 l 517 696 l 377 465 l 517 465 l 656 696 l 710 696 l 571 465 z m 488 417 l 349 417 l 264 276 l 404 276 z"},",":{"x_min":0,"x_max":153,"ha":153,"o":"m 115 20 q 115 -25 82 -57 q 50 -89 11 -102 q 7 -104 4 -104 q 1 -104 1 -99 q 1 -94 9 -91 q 39 -81 60 -58 q 81 -36 85 -4 q 72 -14 56 -14 q 40 -14 30 -2 q 20 10 23 27 q 25 44 40 56 q 54 68 73 68 q 92 68 104 54 q 115 41 115 20 z"},"n":{"x_min":0,"x_max":335,"ha":335,"o":"m 359 328 q 236 112 236 46 q 236 20 255 20 q 306 20 392 193 q 398 207 404 204 q 410 201 410 196 q 410 191 406 184 q 353 77 316 36 q 280 -4 244 -4 q 207 -4 188 24 q 178 37 178 60 q 178 82 188 114 q 198 146 243 218 q 254 236 254 246 q 254 257 237 257 q 220 257 172 212 q 100 146 33 14 q 27 4 20 2 q 12 -1 -10 -2 q -32 -3 -39 -7 q -23 25 24 124 q 108 299 134 324 q 146 336 167 336 q 171 336 188 333 q 204 330 212 332 q 175 312 91 144 q 138 202 176 236 q 215 271 269 300 q 323 330 348 330 q 354 330 359 328 z"},"h":{"x_min":0,"x_max":332,"ha":332,"o":"m 235 45 q 235 17 255 17 q 302 17 388 193 q 395 207 400 204 q 406 201 406 196 q 406 191 394 168 q 383 144 372 122 q 360 101 338 66 q 292 -4 240 -4 q 206 -4 186 24 q 177 37 177 60 q 177 82 187 114 q 197 146 242 218 q 253 236 253 246 q 253 257 236 257 q 219 257 171 212 q 99 146 31 14 q 24 -1 -6 -1 q -33 -3 -40 -7 q 150 388 235 544 q 254 579 268 593 q 283 607 303 607 q 308 607 324 604 q 340 602 348 603 q 318 572 240 432 q 163 291 92 146 q 139 205 176 238 q 214 271 268 300 q 322 330 347 330 q 353 330 358 328 q 235 112 235 45 z"},"z":{"x_min":0,"x_max":341,"ha":341,"o":"m -105 -310 q -148 -310 -170 -284 q -193 -258 -193 -231 q -193 -204 -176 -179 q -160 -154 -136 -136 q -111 -117 -88 -104 q -65 -92 -24 -76 q 18 -61 41 -54 q 64 -46 113 -31 q 162 -16 178 -11 q 196 47 196 77 q 196 129 167 129 q 163 129 159 128 q 111 103 102 110 q 97 114 98 120 q 99 126 107 128 q 175 149 219 216 q 232 236 232 253 q 232 270 218 286 q 204 302 188 302 q 138 302 105 245 q 77 198 52 145 q 46 131 39 136 q 32 140 40 156 q 93 260 99 270 q 144 352 222 352 q 257 352 275 326 q 285 312 285 284 q 285 257 258 218 q 232 178 187 151 q 188 151 189 151 q 254 151 256 86 q 256 48 245 13 q 321 28 399 192 q 403 201 409 202 q 416 205 416 196 q 416 185 390 138 q 364 91 341 60 q 299 0 239 -12 q 200 -119 124 -196 q 47 -272 -59 -303 q -84 -310 -105 -310 z m -152 -211 q -158 -230 -158 -250 q -158 -270 -143 -279 q -128 -288 -115 -288 q -67 -288 -10 -252 q 48 -215 96 -159 q 144 -103 169 -36 q 148 -43 103 -56 q 58 -69 32 -77 q -38 -99 -79 -123 q -133 -154 -152 -211 z"},"B":{"x_min":0,"x_max":1041,"ha":1041,"o":"m 1038 192 q 1038 135 997 86 q 939 16 842 -15 q 770 -38 702 -38 q 677 -38 653 -35 q 496 -15 387 34 q 288 -39 178 -39 q 48 -39 17 33 q 10 50 10 73 q 10 96 33 122 q 69 162 133 162 q 175 162 209 150 q 243 138 293 111 q 343 84 367 72 q 411 115 458 192 q 505 268 540 342 q 576 415 631 505 q 686 595 743 658 l 800 723 q 721 737 626 737 q 531 737 417 712 q 261 679 177 578 q 126 517 126 462 q 126 389 197 367 q 222 360 241 360 q 260 360 285 367 q 310 374 334 396 q 357 419 368 440 q 378 461 378 472 q 378 482 388 482 q 398 481 399 468 l 399 467 q 388 394 321 356 q 280 334 239 334 l 187 343 q 81 380 81 481 q 81 550 142 617 q 240 727 430 754 q 522 767 622 767 q 721 767 824 745 q 852 769 873 777 q 894 785 898 785 q 901 785 902 784 q 908 784 904 778 q 901 771 882 759 q 864 747 860 737 q 996 702 1056 637 q 1088 601 1088 564 q 1088 526 1066 488 q 1037 438 972 412 q 907 387 841 384 q 905 364 960 328 q 1038 277 1038 192 z m 688 -10 q 800 -10 878 54 q 963 122 963 201 q 963 283 876 325 q 844 340 798 354 q 751 369 722 379 q 694 389 690 398 q 690 417 719 418 q 738 418 777 415 q 816 412 844 412 q 872 413 912 432 q 951 452 979 483 q 1024 533 1024 577 q 1024 671 848 712 q 795 639 658 404 q 521 168 447 88 l 409 52 q 522 5 652 -8 q 671 -10 688 -10 z m 345 53 q 228 109 197 120 q 166 131 136 131 q 105 131 87 110 q 69 88 69 70 q 69 53 77 37 q 99 -8 169 -8 q 264 -8 345 53 z"},"K":{"x_min":0,"x_max":1144,"ha":1144,"o":"m 899 152 q 893 186 891 208 q 889 230 889 254 q 889 277 897 280 q 898 280 900 280 q 930 280 1011 321 q 1092 362 1196 432 q 1299 501 1412 610 q 1524 718 1597 829 q 1610 848 1619 848 q 1622 848 1626 845 q 1629 842 1629 835 q 1629 828 1622 816 q 1508 627 1301 460 q 1094 294 955 259 q 953 256 953 246 q 953 237 955 215 q 957 193 974 130 q 992 68 1015 15 q 1083 -141 1194 -141 q 1258 -141 1316 -114 q 1375 -87 1401 -36 q 1407 -22 1416 -22 q 1425 -22 1414 -44 q 1387 -99 1320 -142 q 1252 -184 1181 -184 q 1110 -184 1047 -132 q 937 -42 899 152 z m 1150 734 q 1118 705 1049 698 q 992 595 918 367 q 891 284 846 190 q 800 97 748 27 q 696 -43 610 -96 q 525 -150 417 -166 q 382 -171 340 -171 q 297 -171 247 -160 q 64 -118 11 20 q -5 62 -5 104 q -5 145 6 189 q 18 233 56 268 q 95 302 120 305 q 133 307 133 299 q 133 294 127 291 q 103 280 69 239 q 25 185 25 105 q 25 23 75 -28 q 136 -92 219 -108 q 276 -119 313 -119 q 350 -119 378 -111 q 460 -92 532 -52 q 603 -11 652 34 q 700 80 744 144 q 789 207 814 255 q 840 303 905 450 q 970 597 1019 696 q 1004 694 933 688 q 802 677 729 656 q 592 618 534 510 q 506 458 506 409 q 506 383 514 358 q 536 291 601 291 q 683 291 716 376 q 732 417 732 444 q 732 471 730 482 q 728 493 733 493 q 741 491 747 480 q 756 459 756 430 q 756 402 737 365 q 707 302 653 282 q 620 270 591 270 q 541 270 501 306 q 447 354 447 431 q 447 540 549 614 q 643 684 821 703 q 875 709 944 714 q 1014 718 1033 720 q 1044 739 1066 766 q 1089 794 1106 798 q 1122 803 1138 803 q 1153 803 1161 790 q 1169 777 1169 764 q 1169 751 1150 734 z m 1138 764 q 1138 775 1129 775 q 1118 775 1106 766 q 1095 756 1067 723 q 1096 727 1111 735 q 1138 748 1138 764 z"},"R":{"x_min":0,"x_max":1024,"ha":1024,"o":"m 637 365 q 605 301 587 268 q 569 234 534 182 q 499 130 461 88 q 343 -39 194 -39 q 59 -39 26 34 q 18 51 18 74 q 18 96 41 122 q 78 163 143 163 q 187 163 236 146 q 249 141 246 135 q 243 129 220 138 q 197 147 164 147 q 132 147 108 122 q 85 97 85 70 q 85 58 90 44 q 110 -8 184 -8 q 266 -8 329 41 q 365 69 394 98 q 423 127 456 176 q 508 251 544 316 q 581 380 624 456 q 666 533 686 568 q 750 677 803 735 q 747 740 691 740 q 563 740 436 714 q 310 687 236 626 q 143 549 143 462 q 143 420 173 388 q 203 355 254 355 q 316 355 357 399 q 398 443 400 469 q 401 482 406 482 q 414 482 413 467 q 406 419 374 386 q 318 328 240 328 q 181 328 138 368 q 94 408 94 475 q 94 574 190 652 q 287 731 444 754 q 556 770 650 770 q 745 770 825 759 q 851 787 861 787 q 867 787 867 778 q 867 768 862 754 q 936 742 961 735 q 1111 691 1111 599 q 1111 540 1038 482 q 946 411 792 386 q 748 379 700 377 q 732 200 811 79 q 838 38 860 20 q 883 1 909 1 q 945 1 986 41 q 1026 81 1079 187 q 1087 202 1095 202 q 1103 202 1096 187 q 1038 57 993 8 q 948 -41 890 -41 q 831 -41 777 16 q 723 72 687 177 q 651 282 637 365 z m 1039 614 q 1039 622 1037 630 q 1026 686 948 710 q 924 717 850 729 q 832 698 762 584 q 692 470 658 403 q 680 407 722 410 q 765 414 784 416 q 898 430 978 505 q 1039 561 1039 614 z"},"T":{"x_min":0,"x_max":918,"ha":918,"o":"m 1317 586 q 1379 586 1379 616 q 1379 631 1390 631 q 1400 631 1400 606 q 1400 582 1372 569 q 1344 556 1322 556 q 1301 556 1287 558 q 1140 577 1035 622 q 964 510 908 324 q 887 257 848 179 q 810 101 766 50 q 721 0 663 -32 q 549 -94 394 -94 q 268 -94 158 -32 q 50 29 32 156 q 30 173 30 206 q 30 240 50 302 q 69 364 123 396 q 145 409 156 409 q 174 409 172 392 q 168 387 152 376 q 135 364 120 352 q 105 339 90 313 q 64 269 64 214 q 64 88 150 20 q 196 -18 253 -38 q 310 -58 367 -58 q 369 -58 372 -58 q 579 -53 712 92 q 796 183 942 503 q 992 613 1006 632 q 829 688 688 688 q 547 688 459 603 q 388 535 388 461 q 388 380 459 358 q 484 351 504 351 q 525 351 552 358 q 578 366 602 390 q 627 413 640 436 q 652 459 650 471 l 650 473 q 658 480 664 478 q 670 475 670 465 q 660 387 591 348 q 549 323 513 323 q 477 323 449 333 q 367 362 345 444 q 338 470 338 495 q 338 555 375 612 q 441 714 582 735 q 614 740 643 740 q 672 740 710 737 q 749 734 812 717 q 876 700 942 678 q 1009 655 1022 651 q 1071 711 1095 712 q 1100 714 1108 714 q 1117 714 1122 700 q 1127 686 1115 682 q 1110 681 1102 683 q 1096 687 1078 670 q 1059 654 1050 643 q 1144 613 1215 600 q 1286 586 1317 586 z"},"P":{"x_min":0,"x_max":890,"ha":890,"o":"m 965 705 q 1071 642 1071 553 q 1071 483 993 403 q 948 356 886 322 q 825 288 765 273 q 661 248 577 248 q 559 248 541 249 q 468 142 391 67 q 278 -39 142 -39 q 12 -39 -18 32 q -25 49 -25 72 q -25 94 -2 120 q 34 161 99 161 q 141 161 187 146 q 204 140 199 133 q 195 129 173 137 q 151 145 118 145 q 86 145 62 120 q 37 96 37 68 q 37 57 41 46 q 57 -8 132 -8 q 244 -8 352 96 q 429 171 525 366 q 562 439 617 528 q 672 618 729 682 q 736 689 747 700 q 768 724 782 738 q 710 748 628 748 q 546 748 473 734 q 400 721 346 702 q 292 684 236 654 q 181 625 143 580 q 93 523 93 461 q 93 423 120 390 q 149 355 194 355 q 240 355 282 390 q 325 425 343 476 q 344 483 348 486 q 351 488 354 485 q 357 482 357 475 q 356 410 306 372 q 257 335 197 335 q 129 335 86 375 q 43 415 43 478 q 43 536 74 582 q 105 629 148 658 q 191 687 247 710 q 342 748 446 764 q 551 779 642 779 q 732 779 809 763 q 845 791 872 801 q 899 811 902 811 q 906 811 907 810 q 913 810 910 804 q 906 797 886 784 q 867 771 849 753 q 913 736 965 705 z m 569 270 q 642 270 728 296 q 813 321 879 370 q 1007 467 1007 570 q 1007 687 830 729 q 774 651 685 492 q 596 333 555 270 q 562 270 569 270 z"},"|":{"x_min":0,"x_max":485,"ha":485,"o":"m 264 -231 l 221 -231 l 221 749 l 264 749 z"},"t":{"x_min":0,"x_max":200,"ha":200,"o":"m 32 80 q 32 163 112 358 l 60 358 q 55 358 54 364 q 52 369 54 374 q 57 380 62 380 l 122 380 q 158 459 189 512 q 220 565 246 584 q 272 602 284 602 q 295 602 300 600 q 323 589 323 554 q 323 520 300 471 q 277 422 255 380 l 303 380 q 308 380 310 374 q 311 369 308 364 q 306 358 301 358 l 243 358 q 188 265 110 193 l 87 91 q 84 78 84 66 q 84 53 91 40 q 98 27 113 27 q 130 27 151 39 q 199 75 257 190 q 261 199 266 201 q 272 203 273 198 q 274 194 270 184 q 237 115 218 86 q 164 -1 103 -1 q 72 -1 52 22 q 32 45 32 80 z m 233 380 q 299 498 299 544 q 299 564 292 564 q 281 564 258 532 q 236 500 183 380 z m 220 358 l 173 358 q 161 330 119 225 q 173 281 220 358 z"},"M":{"x_min":0,"x_max":1329,"ha":1329,"o":"m 431 358 q 431 427 366 427 q 357 427 344 426 q 331 424 326 432 q 318 443 352 447 q 364 449 376 449 q 434 449 455 399 q 464 378 464 346 q 464 313 436 264 q 387 175 282 131 q 247 116 210 116 q 172 116 132 135 q 58 170 29 252 q 18 284 18 332 q 18 381 45 455 q 107 600 249 702 q 401 812 533 812 q 645 812 683 722 q 700 683 700 628 q 700 610 698 591 q 688 504 646 392 q 639 373 639 366 q 639 360 642 360 q 647 359 659 381 q 733 516 822 623 q 851 658 892 680 q 937 704 972 704 q 1008 704 1028 678 q 1049 652 1049 609 q 1049 508 970 272 q 954 225 950 212 q 1031 339 1154 492 q 1276 644 1371 672 q 1388 677 1401 677 q 1439 677 1450 639 q 1454 626 1454 609 q 1454 558 1414 478 q 1332 314 1302 217 q 1261 89 1261 42 q 1261 -5 1270 -36 q 1288 -98 1365 -98 q 1369 -98 1382 -98 q 1394 -97 1396 -102 q 1397 -107 1388 -111 q 1380 -115 1372 -115 q 1363 -115 1358 -114 q 1200 -98 1200 48 q 1200 101 1222 168 q 1243 236 1258 272 q 1282 330 1359 499 q 1386 562 1386 595 q 1386 628 1358 628 q 1319 628 1237 548 q 1195 506 1146 446 q 1097 385 1001 234 q 905 82 879 20 q 856 -34 818 -34 q 791 -34 786 -15 q 783 -7 786 -2 q 789 2 805 31 q 821 60 838 92 q 855 124 878 179 q 902 234 922 291 q 970 432 987 581 q 989 598 989 624 q 989 649 976 664 q 962 679 947 679 q 898 679 839 605 q 759 506 700 410 q 641 315 610 250 q 578 185 536 94 q 495 2 492 -4 q 490 -10 486 -19 q 481 -28 478 -36 q 465 -65 422 -65 q 397 -65 395 -49 q 395 -46 396 -42 q 462 60 542 267 q 644 529 644 649 q 644 792 526 792 q 450 792 334 719 q 219 646 143 532 q 113 487 98 445 q 72 368 72 323 q 72 194 158 153 q 188 138 219 138 q 327 138 396 255 q 431 314 431 358 z"},"g":{"x_min":0,"x_max":392,"ha":392,"o":"m -12 -316 q -106 -316 -106 -239 q -106 -175 -19 -124 q 55 -81 170 -43 q 223 -26 247 -16 q 273 60 273 150 q 273 168 271 177 q 243 120 194 60 q 136 -12 79 4 q 27 26 27 90 q 27 176 113 279 q 160 335 223 350 q 240 355 257 355 q 302 355 345 325 q 361 312 361 303 q 361 294 355 286 q 349 277 342 284 q 336 290 334 296 q 321 333 292 333 q 239 333 173 259 q 136 217 109 169 q 76 109 76 76 q 76 44 96 33 q 103 30 110 30 q 133 30 168 62 q 202 93 232 142 q 261 190 269 217 q 277 244 288 251 q 300 258 314 259 q 328 260 333 264 q 341 219 341 158 q 341 98 320 21 q 366 54 386 80 q 405 106 416 127 q 428 148 437 168 q 446 189 449 195 q 452 201 459 202 q 466 204 466 196 q 466 191 463 184 q 419 93 390 52 q 360 12 309 -12 q 285 -80 240 -147 q 194 -214 125 -265 q 56 -316 -12 -316 z m -85 -258 q -85 -296 -36 -296 q -7 -296 30 -279 q 66 -262 90 -244 q 131 -211 180 -146 q 217 -94 237 -45 l 202 -57 q 46 -111 -18 -153 q -65 -184 -80 -232 q -85 -247 -85 -258 z"},"i":{"x_min":0,"x_max":174,"ha":174,"o":"m 128 418 q 131 435 145 447 q 159 459 176 459 q 193 459 204 447 q 214 435 211 418 q 208 401 194 389 q 180 377 163 377 q 146 377 136 389 q 126 401 128 418 z m 96 22 q 115 22 136 41 q 173 78 230 192 q 237 207 244 201 q 246 199 246 194 q 246 190 238 172 q 230 155 224 141 q 217 127 198 96 q 180 64 165 47 q 124 0 88 0 q 51 0 35 22 q 19 44 19 71 q 19 98 32 130 l 96 293 q 98 299 98 309 q 98 319 86 335 l 141 336 q 164 336 168 328 q 172 319 162 301 l 82 114 q 65 77 65 51 q 65 22 96 22 z"},"y":{"x_min":0,"x_max":399,"ha":399,"o":"m -81 -316 q -125 -316 -149 -298 q -173 -279 -173 -253 q -173 -227 -158 -194 q -132 -143 -64 -112 q -13 -88 71 -68 q 155 -47 179 -40 q 215 23 265 185 q 207 83 168 42 q 129 1 89 1 q 35 1 26 46 q 22 53 24 67 q 26 81 26 87 q 27 93 33 106 q 39 120 41 126 q 52 149 60 162 q 44 162 51 178 l 69 213 q 103 278 125 323 q 135 344 164 344 l 225 344 q 223 342 215 336 q 197 324 188 308 q 152 246 98 131 q 76 84 76 62 q 76 40 84 31 q 91 22 104 22 q 123 22 157 62 q 228 145 314 323 q 325 344 353 344 l 407 344 q 381 326 366 298 q 351 271 334 224 q 316 177 290 99 q 263 21 249 -18 q 343 10 393 81 q 415 112 456 191 q 463 205 468 202 q 474 199 474 194 q 474 189 458 156 q 441 122 424 94 q 407 65 380 35 q 353 5 320 -12 q 287 -30 232 -50 q 155 -190 77 -256 q 4 -316 -81 -316 z m -139 -217 q -150 -239 -150 -258 q -150 -276 -136 -286 q -122 -296 -101 -296 q -43 -296 23 -236 q 89 -177 139 -109 l 161 -72 q -4 -115 -47 -134 q -111 -162 -139 -217 z"},"@":{"x_min":0,"x_max":956,"ha":956,"o":"m 337 116 q 337 74 370 74 q 407 74 455 129 q 506 190 548 271 q 591 352 607 370 q 623 387 648 387 q 656 387 676 383 q 695 379 706 381 q 683 359 641 279 q 586 174 586 120 q 586 66 637 66 q 700 66 766 119 q 831 172 867 254 q 903 337 903 413 q 903 508 856 562 q 809 617 749 638 q 689 658 615 658 q 482 658 364 584 q 247 510 185 396 q 123 282 123 169 q 123 56 178 -9 q 233 -74 304 -100 q 375 -126 458 -126 q 620 -126 767 -27 q 776 -18 783 -28 q 790 -38 778 -43 q 620 -148 451 -148 q 243 -148 140 -24 q 75 55 75 176 q 75 264 115 356 q 155 448 232 520 q 308 592 409 636 q 510 679 613 679 q 734 679 828 624 q 876 597 906 550 q 943 494 943 414 q 943 333 896 248 q 850 163 769 98 q 742 77 693 61 q 644 45 607 45 q 604 45 600 45 q 561 45 533 78 q 517 97 517 128 q 517 160 528 200 q 484 128 438 83 q 391 38 354 38 q 336 38 321 48 q 281 73 281 143 q 281 264 387 391 q 446 462 534 483 q 558 489 580 489 q 638 489 679 449 q 691 435 686 422 q 681 410 666 413 q 653 458 606 458 q 582 458 558 444 q 517 422 472 372 q 426 323 386 258 q 337 177 337 116 z"},".":{"x_min":0,"x_max":208,"ha":208,"o":"m 102 15 q 102 42 118 55 q 134 68 151 68 q 168 68 177 58 q 186 47 186 39 q 186 31 184 20 q 182 10 168 -2 q 154 -14 137 -14 q 120 -14 111 -4 q 102 7 102 15 z"},"p":{"x_min":0,"x_max":336,"ha":336,"o":"m 357 272 q 357 228 334 175 q 311 122 270 73 q 230 24 172 6 q 150 0 122 0 q 93 0 59 18 l -36 -219 q -51 -251 -64 -261 q -77 -271 -89 -271 q -101 -271 -104 -271 q -106 -271 -122 -268 q -137 -265 -145 -266 q -123 -245 -34 -66 q 56 112 68 174 q 57 158 47 157 q 41 157 47 168 q 53 180 67 213 q 85 256 85 292 q 85 329 71 335 q 131 345 141 344 q 151 344 154 336 q 156 328 156 318 q 156 257 128 182 l 148 214 q 184 272 200 289 q 217 306 236 324 q 265 352 292 352 q 300 352 307 350 q 357 337 357 272 z m 309 282 q 309 298 302 312 q 296 325 282 325 q 247 325 200 260 q 154 195 67 33 q 80 20 103 20 q 126 20 168 55 q 235 111 280 194 q 309 248 309 282 z"},"X":{"x_min":0,"x_max":807,"ha":807,"o":"m 1082 817 q 1105 817 1105 804 q 1105 793 1076 764 q 1047 735 975 684 q 903 632 774 543 q 644 454 561 395 q 560 337 560 287 q 560 114 576 53 q 599 -31 653 -31 q 728 -31 809 92 q 838 136 861 189 q 868 204 877 202 q 886 201 878 184 q 788 -5 680 -66 q 639 -89 604 -89 q 570 -89 542 -62 q 514 -35 503 17 q 497 44 497 145 q 497 246 499 357 q 110 76 -46 -169 q -77 -220 -107 -220 q -121 -220 -121 -209 q -121 -201 -114 -189 l -102 -169 q 101 112 498 395 q 498 421 498 505 q 498 589 488 658 q 476 737 399 737 q 305 737 197 653 q 142 611 125 574 q 122 571 114 574 q 92 580 109 606 q 118 620 167 660 q 216 701 295 744 q 374 788 433 788 q 495 788 521 738 q 549 687 553 630 q 560 550 560 505 q 560 460 560 450 q 560 440 560 433 q 618 474 732 551 q 846 628 906 672 q 966 716 1009 759 q 1013 763 1020 770 q 1027 776 1030 780 q 1034 784 1040 789 q 1045 794 1048 797 q 1052 800 1056 804 q 1061 808 1064 810 q 1067 812 1071 814 q 1079 817 1082 817 z"},"*":{"x_min":0,"x_max":431,"ha":431,"o":"m 16 369 q 16 389 37 389 l 182 389 q 154 453 125 514 q 116 533 129 536 q 132 537 134 537 q 148 537 159 515 l 218 400 l 334 517 q 349 532 354 519 q 356 515 356 506 q 356 497 341 481 l 256 389 l 392 389 q 408 389 408 379 q 408 364 383 358 l 373 357 l 241 352 q 269 295 294 247 q 298 239 292 226 q 283 210 274 210 q 264 210 256 223 l 206 335 l 97 216 q 90 209 78 212 q 65 216 60 225 q 56 234 68 248 l 168 349 l 36 344 q 27 344 22 353 q 16 362 16 369 z"},"Y":{"x_min":0,"x_max":959,"ha":959,"o":"m 983 483 q 1001 483 1001 453 q 1001 423 982 338 q 962 253 914 108 q 865 -37 814 -128 q 829 -127 868 -126 q 906 -125 930 -124 q 955 -123 990 -118 q 1024 -112 1046 -102 q 1099 -77 1108 -28 q 1106 -15 1110 -14 q 1113 -12 1115 -17 q 1122 -30 1122 -45 q 1122 -60 1106 -86 q 1090 -113 1043 -132 q 996 -152 799 -154 q 751 -226 678 -281 q 604 -336 522 -367 q 440 -398 384 -398 q 327 -398 288 -385 q 213 -360 213 -309 q 213 -243 334 -193 q 489 -129 766 -129 q 864 111 903 258 q 812 62 700 -14 q 641 -54 586 -54 q 531 -54 500 -24 q 470 6 470 58 q 470 167 618 408 q 664 483 692 560 q 724 645 724 706 q 724 767 684 793 q 645 819 589 819 q 567 819 542 814 q 362 780 217 627 q 144 550 110 469 q 75 382 75 320 q 75 294 82 272 q 102 199 161 172 q 191 159 223 159 q 334 159 412 283 q 456 354 456 407 q 456 476 394 476 q 382 476 365 472 q 348 469 347 475 q 346 483 370 489 q 394 495 416 495 q 468 495 486 451 q 494 432 494 410 q 494 366 463 308 q 402 197 284 148 q 248 133 218 133 q 121 133 66 203 q 18 262 18 338 q 18 414 55 490 q 92 566 152 630 q 211 694 279 738 q 347 782 422 811 q 501 842 567 842 q 633 842 684 822 q 737 798 759 758 q 781 717 781 672 q 781 559 698 421 q 569 201 542 79 q 538 58 538 35 q 538 12 553 -8 q 568 -28 597 -28 q 638 -28 686 7 q 743 47 800 138 q 895 290 943 449 q 946 465 961 474 q 976 483 983 483 z m 267 -319 q 267 -327 271 -335 q 292 -369 368 -369 q 443 -369 512 -344 q 580 -319 645 -270 q 710 -222 752 -154 q 490 -154 350 -235 q 267 -283 267 -319 z"},"c":{"x_min":0,"x_max":260,"ha":260,"o":"m 241 230 q 276 272 276 301 q 276 330 252 330 q 205 330 145 244 q 126 217 108 173 q 90 129 90 94 q 90 58 104 36 q 119 14 150 14 q 180 14 206 28 q 232 43 256 74 q 279 106 291 127 q 303 148 324 190 q 331 204 336 202 q 341 199 341 194 q 341 190 328 162 q 314 133 300 108 q 287 83 262 52 q 217 -4 139 -4 q 83 -4 58 24 q 34 51 34 87 q 34 131 56 183 q 77 235 105 273 q 163 352 239 352 q 276 352 292 334 q 309 317 309 294 q 309 260 281 236 q 267 223 258 223 q 248 223 241 230 z"},"!":{"x_min":0,"x_max":350,"ha":350,"o":"m 502 620 l 533 619 l 538 617 l 540 611 q 531 587 372 352 q 212 117 205 107 l 195 108 l 196 115 l 450 599 q 461 620 502 620 z m 119 15 q 119 42 135 55 q 151 68 168 68 q 185 68 194 58 q 203 47 203 39 q 203 31 201 20 q 199 10 185 -2 q 171 -14 154 -14 q 137 -14 128 -4 q 119 7 119 15 z"},"/":{"x_min":0,"x_max":548,"ha":548,"o":"m 232 159 q 61 -41 24 -41 q 16 -41 16 -34 q 16 -26 32 -12 q 48 1 80 36 q 111 70 156 124 q 202 178 244 230 q 287 281 351 362 q 415 443 460 500 q 506 556 581 652 q 656 748 698 800 q 710 816 732 816 q 755 816 755 802 q 755 795 748 788 q 696 728 531 522 q 366 316 232 159 z"},"[":{"x_min":0,"x_max":585,"ha":585,"o":"m 164 24 l 236 28 q 278 28 278 6 q 278 -17 158 -17 q 38 -17 38 28 q 38 143 140 336 q 242 529 339 642 q 363 670 378 684 q 415 718 472 718 l 492 718 q 583 718 583 682 q 583 664 568 664 l 558 664 l 484 668 q 446 668 437 663 q 389 639 306 516 q 224 393 160 258 q 97 124 97 68 q 97 24 164 24 z"},"6":{"x_min":0,"x_max":421,"ha":421,"o":"m 96 74 q 96 47 110 30 q 125 12 151 12 q 195 12 240 58 q 286 104 312 164 q 339 223 339 264 q 339 306 305 306 q 274 306 242 276 q 193 230 160 147 l 156 142 l 146 141 l 144 147 q 160 214 214 276 q 267 337 329 337 q 363 337 382 315 q 400 293 400 258 q 400 203 361 140 q 322 76 262 32 q 201 -11 148 -11 q 95 -11 66 18 q 37 46 37 103 q 37 160 76 234 q 115 309 178 376 q 294 499 420 587 l 426 588 l 433 577 q 432 576 430 573 q 429 570 424 564 q 418 558 392 538 q 367 517 360 511 q 290 446 234 373 q 179 300 138 218 q 96 137 96 74 z"},"r":{"x_min":0,"x_max":260,"ha":260,"o":"m 192 401 q 192 356 135 316 q 155 315 188 315 q 222 315 273 320 q 275 317 275 304 q 275 291 263 266 q 251 240 242 222 q 232 203 224 186 q 215 170 204 146 q 194 122 187 102 q 162 26 195 26 q 237 26 319 193 q 326 206 330 203 q 335 200 335 196 q 335 191 322 164 q 309 138 294 110 q 279 82 247 45 q 209 -1 174 -1 q 135 -1 120 46 q 117 55 117 73 q 117 91 128 121 q 140 151 165 194 q 190 237 193 244 q 196 252 196 259 q 196 290 116 292 l 104 260 q 41 95 -17 39 q -27 30 -27 45 q -27 48 -25 52 q 31 126 72 227 q 113 328 129 419 q 135 450 157 450 q 179 450 189 422 q 192 413 192 401 z"},"2":{"x_min":0,"x_max":488,"ha":488,"o":"m 141 101 q 255 44 279 44 q 303 44 328 61 q 353 78 370 97 q 387 116 391 117 l 398 111 l 398 107 q 300 -12 240 -12 q 219 -12 180 5 q 140 22 114 34 q 87 46 84 47 l 14 -8 l 1 0 q 2 5 48 56 q 94 106 99 108 q 114 110 121 107 q 433 385 433 501 q 433 545 383 545 q 333 545 288 496 q 242 448 220 390 l 216 386 l 204 386 l 202 392 q 228 465 285 520 q 342 576 412 576 q 452 576 478 554 q 503 532 503 490 q 503 448 441 376 q 379 304 324 256 q 270 208 247 188 q 224 169 184 136 q 143 103 141 101 z"},"{":{"x_min":0,"x_max":369,"ha":369,"o":"m 421 726 q 432 726 432 722 q 432 717 427 710 q 422 703 416 703 q 343 703 314 678 q 286 652 272 592 q 257 532 242 466 q 227 401 200 368 q 162 321 67 304 q 147 289 170 250 q 180 233 180 208 q 180 182 176 156 q 172 131 168 108 q 161 75 147 18 q 141 -13 141 -40 q 141 -68 154 -83 q 176 -109 244 -109 q 254 -108 251 -120 q 248 -131 241 -131 l 236 -131 q 138 -131 105 -96 q 88 -77 88 -37 q 88 3 94 32 q 99 60 110 105 q 121 150 124 168 q 128 185 128 212 q 128 261 80 282 q 58 291 15 291 q 8 291 8 296 q 8 302 21 318 q 106 327 136 353 q 168 377 183 454 q 185 463 192 498 q 198 533 203 554 q 208 575 218 605 q 236 664 271 691 q 318 726 417 726 z"},"9":{"x_min":0,"x_max":435,"ha":435,"o":"m 306 182 q 190 57 69 -22 l 63 -22 l 58 -13 l 62 -7 q 304 163 368 415 q 378 453 378 487 q 378 556 323 556 q 278 556 232 516 q 186 476 158 421 q 131 366 131 322 q 131 266 181 266 q 260 266 318 405 l 322 408 l 333 407 l 334 402 q 307 332 256 270 q 204 208 145 208 q 112 208 93 230 q 74 252 74 286 q 74 373 165 475 q 256 577 340 577 q 388 577 413 542 q 438 506 438 448 q 438 390 402 318 q 365 245 306 182 z"}," ":{"x_min":0,"x_max":259,"ha":259,"o":""},"I":{"x_min":0,"x_max":912,"ha":912,"o":"m 1120 735 l 1078 726 q 1010 600 955 404 q 936 336 897 252 q 858 169 804 99 q 605 -156 295 -156 q 151 -156 66 -94 q 8 -51 -11 18 q -18 43 -18 82 q -18 121 2 174 q 23 228 69 270 q 115 311 142 313 q 152 313 154 310 q 157 306 143 299 q 112 286 74 240 q 15 170 15 82 q 15 15 58 -33 q 112 -93 211 -115 q 255 -125 278 -125 q 301 -125 326 -124 q 350 -124 390 -114 q 473 -93 549 -46 q 625 1 679 56 q 733 110 779 176 q 857 289 897 398 q 967 583 1047 721 q 888 688 794 648 q 698 606 645 554 q 579 487 560 403 q 554 379 554 359 q 554 317 577 291 q 600 265 626 265 q 653 265 684 277 q 714 289 737 317 q 769 358 769 414 q 769 442 761 449 q 759 452 763 458 q 773 473 782 458 q 795 433 795 404 q 795 374 776 339 q 742 275 678 251 q 646 239 610 239 q 573 239 531 272 q 489 305 489 364 q 489 382 493 403 q 550 660 1063 747 q 1072 766 1096 794 q 1119 822 1136 828 q 1152 833 1163 833 q 1196 833 1197 805 q 1197 775 1173 759 q 1151 745 1120 735 z m 1095 751 q 1163 765 1160 789 q 1158 801 1146 801 q 1135 801 1095 751 z"},"H":{"x_min":0,"x_max":1381,"ha":1381,"o":"m 1537 760 q 1537 757 1524 750 q 1511 744 1480 698 q 1448 652 1400 557 q 1352 462 1316 356 q 1377 356 1394 362 q 1410 368 1414 364 q 1417 360 1404 351 q 1371 328 1307 324 q 1306 322 1291 276 q 1241 121 1241 59 q 1241 24 1254 10 q 1266 -4 1280 -4 q 1294 -4 1311 8 q 1368 50 1436 189 q 1444 206 1452 203 q 1459 200 1451 182 q 1414 103 1390 66 q 1365 29 1334 -2 q 1293 -41 1252 -41 q 1206 -41 1188 -3 q 1179 15 1179 30 q 1179 45 1180 62 q 1180 78 1183 104 q 1186 131 1198 170 q 1209 210 1216 230 q 1222 251 1235 286 q 1248 321 1249 324 q 1206 324 910 337 q 849 155 718 11 q 654 -60 569 -108 q 455 -171 329 -171 q 276 -171 211 -156 q 146 -140 88 -96 q 30 -53 6 21 q -19 95 4 185 q 16 231 58 271 q 99 311 126 312 q 136 312 138 310 q 140 307 136 304 q 133 300 128 298 q 98 285 66 241 q 24 183 24 106 q 24 -14 140 -73 q 210 -108 304 -108 q 345 -108 381 -100 q 720 -24 858 339 q 832 339 808 328 q 783 316 776 316 q 768 316 767 322 q 767 339 791 354 q 815 370 833 372 l 872 372 q 936 532 1018 696 q 992 693 944 689 q 896 685 866 682 q 836 679 792 672 q 748 665 719 656 q 690 646 654 629 q 619 612 595 590 q 538 536 514 458 q 504 426 504 390 q 504 354 530 320 q 556 286 599 286 q 684 286 720 384 q 737 430 737 448 q 737 467 730 476 q 724 486 734 488 q 741 489 746 480 q 758 454 758 424 q 758 394 738 359 q 704 297 646 276 q 618 266 590 266 q 562 266 534 278 q 481 301 456 356 q 440 389 440 419 q 440 449 450 488 q 459 526 487 566 q 515 606 557 630 q 599 655 641 671 q 683 687 740 695 q 798 703 840 707 q 883 711 943 714 q 1003 717 1032 720 q 1043 739 1066 766 q 1088 794 1104 798 q 1120 803 1129 803 q 1166 803 1166 772 q 1166 740 1125 719 q 1084 698 1048 698 q 1021 646 972 512 q 922 379 919 372 q 994 372 1112 364 q 1231 355 1258 355 q 1278 413 1326 521 q 1375 629 1412 684 q 1449 740 1482 752 q 1514 763 1526 763 q 1537 763 1537 760 z m 1116 772 q 1104 772 1066 723 q 1131 733 1130 758 q 1129 769 1119 771 q 1118 772 1116 772 z"},"4":{"x_min":0,"x_max":464,"ha":464,"o":"m 438 353 l 456 354 l 462 351 l 463 345 q 463 342 433 283 q 403 224 396 212 l 420 212 l 426 208 l 421 197 l 414 192 l 385 191 q 296 13 292 9 q 288 5 261 -1 q 234 -7 227 -7 l 222 -6 l 222 -2 q 222 10 322 188 l 79 182 l 79 190 q 88 208 154 275 q 283 404 374 526 q 394 551 407 556 q 420 562 426 564 q 433 565 450 568 q 466 570 477 572 l 484 569 l 485 562 q 485 543 352 418 q 316 384 276 348 q 235 311 204 284 q 174 256 147 232 q 120 208 117 205 l 334 209 l 399 335 q 404 346 414 348 q 430 353 438 353 z"},"~":{"x_min":0,"x_max":485,"ha":485,"o":"m 360 414 q 338 414 296 432 q 249 453 224 453 q 199 453 181 420 q 179 413 163 418 q 158 420 158 422 q 200 497 250 497 q 273 497 315 480 q 357 462 368 462 q 380 461 384 461 q 415 461 432 496 q 433 499 438 499 q 451 499 453 494 q 414 414 360 414 z"},"D":{"x_min":0,"x_max":1014,"ha":1014,"o":"m 375 36 q 282 -39 169 -39 q 40 -39 10 33 q 3 50 3 72 q 3 95 26 121 q 62 162 126 162 q 169 162 212 146 q 256 131 367 72 q 417 120 467 200 q 517 280 554 354 q 590 429 642 517 q 695 605 747 663 q 635 730 509 730 q 457 730 403 719 q 248 686 167 584 q 117 522 117 466 q 117 390 190 367 q 216 360 235 360 q 254 360 278 366 q 301 372 324 394 q 368 438 371 476 q 372 485 382 482 q 393 480 391 467 q 381 394 314 356 q 273 334 232 334 l 180 343 q 104 369 80 440 q 70 467 70 494 q 70 549 111 603 q 199 721 423 754 q 467 760 510 760 q 649 760 775 694 q 814 739 847 762 q 880 786 900 786 q 911 786 913 782 q 915 777 912 774 q 910 772 906 772 q 889 772 862 736 q 835 700 818 669 q 925 598 981 487 q 1026 398 1026 293 q 1026 163 964 86 q 913 23 840 -3 q 753 -34 668 -34 q 496 -34 375 36 z m 399 54 q 500 -6 636 -6 q 794 -6 888 84 q 963 157 963 286 q 963 378 927 459 q 882 562 794 631 q 765 586 682 450 q 600 313 543 228 q 486 143 453 108 q 420 72 399 54 z m 341 52 q 224 108 193 119 q 162 130 132 130 q 103 130 86 108 q 68 86 68 68 q 68 51 76 35 q 97 -8 162 -8 q 258 -8 341 52 z"},"^":{"x_min":0,"x_max":370,"ha":370,"o":"m 403 391 q 403 382 386 382 q 369 382 323 416 q 277 451 260 474 q 141 389 124 386 l 118 393 q 120 406 192 460 q 265 514 282 516 l 288 513 q 329 456 398 399 z"},"0":{"x_min":0,"x_max":502,"ha":502,"o":"m 505 468 q 505 408 476 326 q 447 245 402 170 q 356 94 290 42 q 225 -11 166 -11 q 108 -11 80 26 q 52 64 52 119 q 52 196 106 304 q 160 412 246 496 q 333 579 412 579 q 505 579 505 468 z m 413 560 q 367 560 312 502 q 256 443 213 364 q 170 286 141 206 q 112 127 112 84 q 112 9 173 9 q 236 9 308 104 q 379 199 423 312 q 467 424 467 492 q 467 560 413 560 z"},"F":{"x_min":0,"x_max":1048,"ha":1048,"o":"m 1003 610 q 801 710 678 710 q 555 710 472 640 q 393 573 393 496 q 393 456 422 438 q 461 416 496 416 q 509 416 522 419 q 568 430 600 456 q 632 482 632 498 q 632 514 642 520 q 651 526 651 516 q 651 510 648 502 q 627 431 550 405 q 517 394 482 394 q 447 394 413 415 q 349 451 349 525 q 349 614 431 687 q 513 760 631 760 q 689 760 748 743 q 896 703 1016 627 q 1047 661 1080 661 q 1117 661 1118 636 q 1119 625 1111 626 q 1106 627 1100 634 q 1092 637 1085 637 q 1063 637 1040 615 q 1114 578 1214 552 q 1253 543 1276 543 q 1299 543 1311 544 q 1355 549 1368 577 q 1375 592 1380 596 q 1386 599 1387 592 q 1387 589 1387 584 q 1387 543 1345 522 q 1319 509 1296 509 q 1273 509 1246 514 q 1219 518 1176 532 q 1133 546 1106 558 q 1079 570 1053 583 l 1025 597 q 973 538 914 394 q 895 346 892 339 q 950 331 999 331 q 1048 331 1076 332 q 1105 334 1106 326 q 1107 304 957 304 q 909 304 880 308 q 818 138 756 56 q 730 22 691 -16 q 652 -53 608 -76 q 509 -130 387 -130 q 265 -130 180 -76 q 51 4 51 155 q 51 206 68 264 q 80 302 112 331 q 145 360 167 366 q 189 373 188 369 q 186 365 153 342 q 88 295 76 226 q 71 201 71 168 q 71 135 86 96 q 127 -10 256 -60 q 317 -83 387 -83 q 457 -83 526 -55 q 595 -27 654 29 q 769 138 844 311 l 780 312 q 663 312 626 258 q 617 247 612 252 q 606 258 610 267 q 632 315 672 336 q 712 357 752 357 q 791 357 858 348 q 889 424 936 506 q 984 588 1003 610 z"},"`":{"x_min":0,"x_max":211,"ha":211,"o":"m 193 408 q 193 399 183 399 q 177 399 114 432 q 52 465 46 468 q 9 486 9 510 q 9 534 28 534 q 41 534 117 474 q 193 414 193 408 z"},"k":{"x_min":0,"x_max":363,"ha":363,"o":"m 315 270 q 315 297 288 297 q 248 297 196 252 q 143 206 108 156 q 93 127 84 83 q 74 39 74 22 q 74 5 80 0 l 17 0 q 2 0 10 26 q 17 53 30 84 q 43 115 62 156 q 82 196 91 217 q 9 62 -15 39 q -25 30 -25 45 q -25 48 -23 52 q 12 98 116 302 q 221 506 263 569 q 297 618 329 618 q 329 618 330 618 l 335 618 q 336 618 352 615 q 369 612 377 614 q 340 586 275 486 q 210 385 172 310 q 134 234 121 195 q 212 308 284 335 q 318 346 338 346 q 382 346 382 309 q 382 297 377 282 q 363 244 320 214 q 276 183 224 178 q 212 150 212 126 q 212 103 217 84 q 229 36 262 25 q 269 23 276 23 q 304 23 342 58 q 373 92 423 195 q 430 208 434 204 q 438 199 438 195 q 438 191 423 156 q 408 121 381 79 q 324 -7 255 -7 q 213 -7 190 17 q 157 51 157 106 q 157 134 172 163 q 187 192 207 194 q 210 194 213 194 q 248 194 282 221 q 315 248 315 270 z"},"u":{"x_min":0,"x_max":357,"ha":357,"o":"m 22 58 q 22 101 59 162 q 43 162 50 178 l 68 213 q 102 278 124 323 q 134 344 163 344 l 224 344 q 188 318 152 244 q 115 169 95 126 q 75 84 75 62 q 75 40 82 31 q 90 22 103 22 q 122 22 156 62 q 209 124 305 323 q 316 344 344 344 l 398 344 q 376 327 364 309 q 351 291 329 245 q 269 125 262 86 q 259 72 259 60 q 259 28 281 26 q 335 26 414 193 q 420 207 426 204 q 432 201 432 196 q 432 191 423 173 q 414 155 406 138 q 397 121 380 92 q 362 62 347 45 q 308 1 270 1 q 233 1 219 34 q 213 49 213 72 q 213 95 223 129 q 150 1 88 1 q 34 1 25 46 q 22 51 22 58 z"},"]":{"x_min":0,"x_max":556,"ha":556,"o":"m 453 669 l 342 665 l 339 667 q 352 716 485 716 q 506 716 518 714 q 529 712 538 701 q 548 690 548 670 q 548 527 463 330 q 378 133 275 29 q 254 8 219 -3 q 184 -14 158 -16 q 133 -17 80 -17 q 28 -17 17 -12 q 25 27 99 27 l 117 26 q 147 26 186 36 q 225 47 251 77 q 328 163 408 346 q 489 530 489 635 q 489 650 486 665 q 475 669 453 669 z"},"U":{"x_min":0,"x_max":942,"ha":942,"o":"m 987 482 q 1007 472 1007 453 q 1007 430 982 386 q 899 237 873 83 q 866 41 866 7 q 866 -62 903 -62 l 914 -62 q 932 -62 932 -70 q 932 -82 910 -85 l 898 -85 q 865 -79 847 -50 q 829 -21 828 10 q 826 40 826 60 q 826 117 839 179 q 768 62 699 6 q 634 -46 576 -46 q 534 -46 511 -19 q 481 17 481 72 q 481 126 512 214 q 543 303 594 416 q 646 529 662 591 q 677 653 677 702 q 677 775 638 798 q 591 823 532 823 q 426 823 305 753 q 126 648 63 488 q 37 421 37 366 q 37 310 56 265 q 98 163 202 163 q 324 163 397 287 q 437 353 437 404 q 437 479 369 479 q 353 479 328 474 q 304 468 306 474 q 309 482 336 494 q 363 506 390 506 q 431 506 452 471 q 466 446 466 412 q 466 378 449 332 q 411 231 319 176 q 251 134 189 134 q 127 134 79 171 q -3 234 -3 362 q -3 491 95 614 q 174 713 307 786 q 422 850 529 850 q 585 850 633 830 q 730 788 730 669 q 730 580 673 448 q 640 370 610 306 q 579 241 559 175 q 539 109 539 64 q 539 -20 595 -20 q 655 -20 736 80 l 763 117 q 803 175 866 302 q 930 428 931 429 q 961 482 987 482 z"},"o":{"x_min":0,"x_max":335,"ha":335,"o":"m 239 350 q 312 350 312 258 q 312 216 290 168 q 262 103 206 50 q 219 25 253 25 q 280 25 304 52 q 334 83 347 106 q 360 130 366 141 q 372 152 382 172 q 391 193 393 198 q 395 202 400 202 q 410 203 410 195 q 410 192 408 188 l 402 174 q 396 160 393 154 q 390 148 382 132 q 375 117 370 108 q 364 99 354 84 q 345 69 338 60 q 330 51 319 40 q 308 29 298 23 q 273 8 251 8 q 210 8 187 34 q 141 0 102 0 q 29 0 29 92 q 29 134 51 182 q 81 252 136 301 q 190 350 239 350 z m 250 319 q 223 319 186 283 q 149 247 120 185 q 85 113 85 67 q 85 21 120 21 q 145 21 176 48 q 160 71 160 97 q 162 140 195 140 q 208 140 216 131 q 225 122 225 114 q 225 107 223 99 q 240 124 262 170 q 287 221 287 270 q 287 319 250 319 z"},"N":{"x_min":0,"x_max":1039,"ha":1039,"o":"m 424 363 q 424 427 357 427 q 349 427 340 426 q 330 425 328 428 q 325 432 329 436 q 338 448 388 448 q 439 448 455 404 q 462 387 462 368 q 462 325 430 270 q 376 180 281 142 q 232 122 172 122 q 113 122 64 162 q 16 203 1 277 q -2 296 -2 318 q -2 378 30 458 q 62 537 137 610 q 279 750 437 783 q 481 792 514 792 q 547 792 570 789 q 632 780 667 730 q 695 691 695 631 q 695 577 683 540 q 671 504 667 492 q 663 481 652 457 q 642 433 639 426 q 636 419 623 390 q 581 299 583 298 l 614 348 q 675 442 746 528 q 878 688 983 736 q 1042 764 1086 764 q 1130 764 1160 742 q 1189 721 1189 669 q 1189 617 1156 542 q 1123 468 1060 352 q 996 236 952 141 q 908 46 908 -28 q 908 -54 915 -75 q 929 -121 969 -121 q 991 -121 1014 -110 q 1038 -99 1050 -99 q 1062 -99 1062 -112 q 1062 -125 1043 -136 q 1024 -146 1012 -146 q 852 -146 852 -7 q 852 44 870 96 q 887 148 994 373 q 1101 598 1110 657 q 1112 666 1112 674 q 1112 716 1063 716 q 1030 716 988 694 q 831 619 689 407 q 605 282 498 52 q 459 -32 457 -36 q 443 -65 401 -65 q 376 -65 374 -49 q 373 -46 374 -42 q 422 29 508 220 q 595 412 627 554 q 637 601 637 638 q 637 674 627 700 q 606 753 556 761 q 541 763 514 763 q 487 763 434 748 q 380 732 313 690 q 162 596 94 445 q 57 363 57 294 q 57 259 66 228 q 99 145 182 141 q 285 141 362 227 q 424 296 424 363 z"},"+":{"x_min":0,"x_max":458,"ha":458,"o":"m 159 242 l 298 239 q 301 251 308 282 q 325 353 331 378 q 339 405 354 405 q 365 405 360 387 q 356 369 331 239 q 350 238 395 238 l 461 238 q 472 238 476 233 q 479 228 479 224 q 479 211 458 211 q 411 211 325 205 q 322 187 316 156 q 303 82 302 68 q 300 57 278 52 q 272 51 267 51 q 253 51 253 63 q 253 69 288 203 q 264 201 212 198 q 161 195 147 194 q 136 193 136 213 q 139 239 159 242 z"},"G":{"x_min":0,"x_max":699,"ha":699,"o":"m 159 462 q 111 358 111 276 q 111 107 227 69 q 261 60 296 60 q 332 60 368 69 q 440 88 497 126 q 554 164 569 199 q 609 292 655 292 q 678 292 686 266 q 690 256 688 244 q 678 166 645 90 q 612 13 552 -86 q 672 -87 771 -112 q 792 -117 792 -126 q 792 -137 763 -130 q 694 -112 564 -112 q 552 -112 538 -112 q 477 -200 376 -268 q 274 -335 178 -360 q 125 -374 88 -374 q 51 -374 26 -365 q -47 -338 -47 -294 q -47 -281 -40 -266 q -13 -206 102 -155 q 189 -116 286 -102 q 382 -88 502 -86 q 576 39 603 160 l 607 177 q 559 131 498 96 q 438 60 393 46 q 321 23 274 23 q 228 23 193 36 q 129 58 89 124 q 46 194 46 291 q 46 388 97 499 q 31 567 31 644 q 31 720 93 789 q 105 802 110 798 q 116 795 106 781 q 61 721 61 660 q 61 590 113 529 q 119 542 135 568 q 213 696 347 764 q 452 818 550 818 q 577 818 604 814 q 733 794 778 708 q 796 674 796 634 q 796 595 771 550 q 715 453 575 414 q 501 393 424 393 q 262 393 159 462 z m 573 787 q 487 787 391 729 q 250 645 172 488 q 219 452 280 437 q 342 422 379 422 q 590 422 698 535 q 752 593 752 651 q 752 743 649 775 q 611 787 573 787 z m 4 -301 q 4 -329 52 -339 q 68 -343 87 -343 q 158 -343 267 -292 q 405 -229 486 -113 q 381 -116 302 -129 q 188 -146 85 -212 q 4 -264 4 -301 z"},"q":{"x_min":0,"x_max":342,"ha":342,"o":"m 102 -257 q 89 -238 89 -221 q 89 -204 122 -129 q 155 -54 200 38 q 246 129 259 158 q 244 131 189 56 q 142 1 98 1 q 88 1 78 4 q 27 26 27 90 q 27 176 113 279 q 160 335 223 350 q 240 355 257 355 q 302 355 344 325 q 361 312 361 303 q 361 294 357 289 q 349 277 339 287 q 336 290 334 296 q 320 334 293 334 q 266 334 232 310 q 166 264 121 186 q 76 109 76 71 q 76 42 96 33 q 101 31 107 31 q 156 31 255 195 q 283 240 294 248 q 304 257 313 257 q 322 257 325 257 q 328 257 343 254 q 358 252 366 253 q 312 170 225 -33 q 138 -236 131 -287 q 127 -280 116 -270 q 104 -259 102 -257 z"},"d":{"x_min":0,"x_max":367,"ha":367,"o":"m 268 58 q 268 26 294 26 q 341 26 419 183 q 422 189 424 195 q 427 201 432 203 q 438 205 440 200 q 442 196 438 186 q 358 0 276 0 q 249 0 233 24 q 217 48 217 72 q 217 95 222 115 q 164 19 122 6 q 110 1 98 1 q 87 1 76 4 q 27 17 27 82 q 27 126 50 180 q 72 233 113 282 q 154 331 212 348 q 233 355 262 355 q 290 355 325 337 q 393 465 441 574 q 455 607 468 616 q 482 626 494 626 q 505 626 508 626 q 510 626 526 624 q 543 621 552 622 q 529 601 430 418 q 304 184 278 106 q 268 77 268 58 z m 317 321 q 304 334 280 334 q 257 334 215 299 q 148 243 104 161 q 75 107 75 72 q 75 56 82 43 q 88 30 102 30 q 136 30 186 100 q 236 170 317 321 z"},"1":{"x_min":0,"x_max":378,"ha":378,"o":"m 70 -2 l 61 0 l 60 6 q 110 95 201 258 q 292 421 330 488 q 249 415 167 365 l 163 365 l 159 373 l 161 379 q 294 480 333 522 q 372 564 389 566 l 420 569 q 421 569 422 569 q 423 569 426 568 l 426 563 l 122 5 q 117 2 70 -2 z"},"5":{"x_min":0,"x_max":445,"ha":445,"o":"m 273 554 q 299 563 318 563 q 336 563 356 560 q 377 557 426 557 q 475 557 503 578 l 507 576 q 490 531 447 512 q 404 493 361 493 l 259 496 l 149 305 q 216 350 283 350 q 327 350 355 328 q 383 306 383 263 q 383 197 328 132 q 274 66 198 26 q 123 -13 64 -13 q 5 -13 -12 -1 l -12 6 l -6 13 l -2 15 q 22 6 60 6 q 144 6 230 91 q 316 176 316 260 q 316 291 299 308 q 282 324 256 324 q 229 324 208 316 q 187 308 158 290 q 129 273 119 268 l 113 270 l 113 276 q 120 296 192 421 q 263 546 273 554 z"}}}
